<svg xmlns="http://www.w3.org/2000/svg" width="1920" height="800" viewBox="0 0 1920 800">
  <defs>
    <linearGradient id="sky" x1="0" y1="0" x2="0" y2="1">
      <stop offset="0%" stop-color="#1a3a5c"/>
      <stop offset="100%" stop-color="#2d5a7b"/>
    </linearGradient>
  </defs>
  <rect width="1920" height="800" fill="url(#sky)"/>
  <rect x="0" y="500" width="1920" height="300" fill="#1a472a" opacity="0.6"/>
  <rect x="200" y="250" width="300" height="250" rx="4" fill="#d4c5a9" opacity="0.7"/>
  <rect x="220" y="320" width="60" height="80" rx="2" fill="#87CEEB" opacity="0.5"/>
  <rect x="300" y="320" width="60" height="80" rx="2" fill="#87CEEB" opacity="0.5"/>
  <rect x="380" y="320" width="60" height="80" rx="2" fill="#87CEEB" opacity="0.5"/>
  <rect x="600" y="200" width="400" height="300" rx="4" fill="#c4b596" opacity="0.7"/>
  <rect x="750" y="200" width="100" height="40" rx="20" fill="#8B7355" opacity="0.5"/>
  <rect x="620" y="300" width="70" height="90" rx="2" fill="#87CEEB" opacity="0.5"/>
  <rect x="720" y="300" width="70" height="90" rx="2" fill="#87CEEB" opacity="0.5"/>
  <rect x="820" y="300" width="70" height="90" rx="2" fill="#87CEEB" opacity="0.5"/>
  <rect x="920" y="300" width="70" height="90" rx="2" fill="#87CEEB" opacity="0.5"/>
  <rect x="1200" y="280" width="350" height="220" rx="4" fill="#b8a88a" opacity="0.7"/>
  <rect x="1220" y="320" width="60" height="80" rx="2" fill="#87CEEB" opacity="0.5"/>
  <rect x="1320" y="320" width="60" height="80" rx="2" fill="#87CEEB" opacity="0.5"/>
  <rect x="1420" y="320" width="60" height="80" rx="2" fill="#87CEEB" opacity="0.5"/>
  <ellipse cx="300" cy="460" rx="80" ry="60" fill="#2d6b3f" opacity="0.6"/>
  <ellipse cx="550" cy="470" rx="100" ry="50" fill="#1a5c2e" opacity="0.5"/>
  <ellipse cx="1100" cy="460" rx="90" ry="55" fill="#2d6b3f" opacity="0.6"/>
  <ellipse cx="1500" cy="470" rx="85" ry="50" fill="#1a5c2e" opacity="0.5"/>
</svg>
